<svg height="512pt" viewBox="-26 0 512 512.00002" width="512pt" xmlns="http://www.w3.org/2000/svg"><path d="M210.625 56.785l-96.922-18.91a10.034 10.034 0 0 0-10.61 4.82c-1.448 2.5-35.675 62.14-50.558 138.422-3.433 17.602-4.945 35.074-4.594 51.688A183.355 183.355 0 0 0 52.6 271.59c.832 3.594 1.8 7.16 2.902 10.68 8.27 26.402 22.473 44.44 40.55 51.894L75.118 446.988l-45.082-8.797c-11.418-2.225-23.195 4.126-27.54 14.927-.733 1.832-1.18 3.727-1.554 5.656-.358 1.83-.753 3.65-.88 5.512-.412 5.902 1.38 11.813 4.948 16.527 3.637 4.81 8.984 8.13 14.898 9.286l109.97 21.457c9.534 1.86 19.644-2.38 25.112-10.39a23.527 23.527 0 0 0 3.21-6.868c.845-2.992 1.53-6.235 1.68-9.34.282-5.71-1.526-11.45-4.968-16.008-3.62-4.794-9.012-8.145-14.91-9.298l-45.176-8.816 20.942-112.856c18.46-.168 37.26-10.378 54.097-29.535a126.742 126.742 0 0 0 3.996-4.797c12.36-15.418 22.702-34.84 30.296-56.62a251.53 251.53 0 0 0 9.3-34.512c14.888-76.278 5.59-144.41 5.19-147.274a10.045 10.045 0 0 0-8.02-8.457zM139.05 481.277c.766 1.137.817 2.508.626 3.825-.176 1.21-.395 2.562-.84 3.707-.813 2.108-2.828 3.483-5.117 3.038L23.753 470.39a4.588 4.588 0 0 1-3.125-2.308c-.876-1.61-.4-3.28-.08-4.97.29-1.514.51-3.01 1.712-4.1 1.05-.953 2.53-1.383 3.925-1.11l109.97 21.457a4.533 4.533 0 0 1 2.894 1.917zM117.083 58.992l82.48 16.094c1.91 19.094 5.747 74.348-5.808 133.586a241.2 241.2 0 0 1-3.168 13.933H68.023c.33-12.203 1.727-24.863 4.22-37.644 11.538-59.12 35.894-108.976 44.84-125.968zm58.734 203.98c-5.113 10.426-11.238 20.423-18.632 29.395-10.782 13.094-22.157 21.375-33.11 24.32-5.52 1.465-11.32 1.65-16.844.118-9.312-2.594-17.445-9.797-23.86-20.496-7.413-12.455-11.347-26.884-13.472-41.126-.62-4.145-1.074-8.32-1.39-12.5h115.887c-2.493 6.91-5.333 13.7-8.58 20.29zm0 0"/><path d="M176.145 174.27c.312.027.62.042.925.042 5.133 0 9.512-3.917 9.99-9.128 1.88-20.65 2.41-41.99 1.56-63.426a10.012 10.012 0 0 0-10.43-9.637c-5.542.22-9.854 4.888-9.635 10.43.816 20.567.312 41.024-1.496 60.81-.505 5.523 3.565 10.406 9.085 10.91zm0 0M459.543 461.223c-.715-3.676-1.504-7.395-3.285-10.727-1.524-2.855-3.703-5.375-6.235-7.387-5.617-4.47-12.996-6.294-20.05-4.915L384.84 447l-22.024-112.875c38.704-16.086 57.65-80.195 43.442-153.008-14.883-76.28-49.113-135.922-50.56-138.422a10.045 10.045 0 0 0-10.608-4.82l-96.926 18.91a10.05 10.05 0 0 0-8.02 8.457c-.402 2.863-9.695 70.996 5.188 147.274 14.207 72.812 55.867 125.097 97.777 125.457l22.023 112.875-45.13 8.804c-9.398 1.832-17.112 9.36-19.284 18.668-1.286 5.528-.435 11.446 1.315 16.778a24.692 24.692 0 0 0 9.723 12.773c5.355 3.564 12.054 4.915 18.37 3.685l109.97-21.457c13.16-2.57 22.02-15.696 19.445-28.875zM259.233 75.086l82.478-16.094c8.95 17 33.306 66.852 44.84 125.97.513 2.62.97 5.233 1.388 7.84H262.285c-8.1-52.93-4.78-100.322-3.05-117.716zm179.912 393.387a4.498 4.498 0 0 1-2.89 1.914l-109.966 21.46a4.608 4.608 0 0 1-3.923-1.105c-1.19-1.074-1.433-2.62-1.72-4.117-.295-1.53-.725-3.152-.065-4.652a4.577 4.577 0 0 1 3.27-2.614l109.964-21.462c2.258-.44 4.3.973 5.118 3.04.84 2.117 1.578 5.503.21 7.535zm-97.543-150.625c-8.66-.52-16.762-4.485-23.657-9.555-6.894-5.07-12.843-11.352-18.105-18.078-3.188-4.078-6.117-8.356-8.832-12.762-5.16-8.367-9.887-17.785-13.996-28.008-4.77-11.828-8.426-24.1-11.106-36.566H390.25c1.28 18.268.477 36.956-3.766 54.823-1.21 5.098-2.722 10.13-4.593 15.024-7.046 18.42-17.624 30.367-29.992 33.984a30.64 30.64 0 0 1-10.296 1.138zm0 0M237.94 10.04c0-5.544-4.495-10.04-10.038-10.04-5.547 0-10.04 4.496-10.04 10.04v32.62c0 5.543 4.493 10.04 10.04 10.04 5.543 0 10.04-4.497 10.04-10.04zm0 0M187.188 37.992a10.034 10.034 0 0 0 13.792 3.37c4.74-2.878 6.25-9.053 3.372-13.792L191.977 7.195c-2.88-4.734-9.05-6.246-13.793-3.367-4.74 2.88-6.246 9.055-3.368 13.793zm0 0M256.816 41.363a10.034 10.034 0 0 0 13.793-3.37l12.37-20.372c2.88-4.737 1.372-10.913-3.367-13.792-4.742-2.88-10.914-1.37-13.793 3.367L253.45 27.57c-2.884 4.74-1.372 10.914 3.366 13.793zm0 0"/><path d="M334.727 125.016a444.936 444.936 0 0 1 10.296 31.804c1.196 4.243 1.852 8.707 5.942 11.168 3.597 2.16 8.305 1.82 11.547-.847 3.043-2.5 4.285-6.558 3.324-10.35-1.316-5.208-2.88-10.368-4.46-15.505a461.04 461.04 0 0 0-5.192-15.86c-.903-2.6-1.72-5.284-2.805-7.816a10.016 10.016 0 0 0-3.517-4.297c-3.535-2.438-8.363-2.333-11.79.265-3.46 2.637-4.843 7.352-3.346 11.438zm0 0M181.492 204.04c0 5.565-4.515 10.08-10.082 10.08-5.57 0-10.082-4.515-10.082-10.08a10.08 10.08 0 0 1 10.082-10.083c5.567 0 10.082 4.512 10.082 10.082zm0 0M339.113 84.566c0 5.567-4.515 10.082-10.082 10.082s-10.08-4.515-10.08-10.082c0-5.57 4.515-10.082 10.08-10.082s10.083 4.512 10.083 10.082zm0 0"/></svg>