<svg xmlns="http://www.w3.org/2000/svg" viewBox="0 0 512.001 512.001"><path d="M254.888 49.55c-5.523 0-10 4.476-10 10v73.184c0 5.523 4.477 10 10 10 5.522 0 10-4.477 10-10V59.55c0-5.524-4.478-10-10-10zM261.96 10.555a10.076 10.076 0 0 0-7.07-2.93c-2.64 0-5.21 1.07-7.07 2.93s-2.93 4.44-2.93 7.07 1.07 5.21 2.93 7.07 4.43 2.93 7.07 2.93c2.63 0 5.21-1.07 7.07-2.93s2.93-4.44 2.93-7.07-1.07-5.21-2.93-7.07z"/><path d="M290.714 173.895v-20.423c0-16.95-13.79-30.738-30.738-30.738H249.8c-16.95 0-30.738 13.79-30.738 30.738v20.423c-21.826 4.907-42.01 14.2-59.58 26.897-.68.383-1.31.85-1.886 1.382-39.996 29.78-65.953 77.41-65.953 130.995 0 53.59 25.96 101.23 65.964 131.01a10 10 0 0 0 1.822 1.33c26.863 19.432 59.844 30.904 95.458 30.904 90.014 0 163.245-73.23 163.245-163.245 0-77.71-54.582-142.902-127.42-159.275zM147.19 238.83a479.854 479.854 0 0 0-5.996 37.652c-.378.077-.756.148-1.134.225l-18.376 3.773c6.097-15.36 14.78-29.42 25.507-41.65zM115.236 365.1a143.156 143.156 0 0 1-3.592-31.93 143.2 143.2 0 0 1 3.373-30.93c.18-.028.358-.047.538-.084l23.633-4.853a480.618 480.618 0 0 0 .06 72.523l-23.77-4.69c-.08-.015-.16-.02-.242-.035zm6.844 21.725l18.055 3.562c.384.076.768.145 1.152.22a479.697 479.697 0 0 0 5.904 36.902 143.544 143.544 0 0 1-25.11-40.685zm51.03-171.193a142.77 142.77 0 0 1 40.45-19.622 679.613 679.613 0 0 0-10.657 71.366 571.837 571.837 0 0 0-41.078 5.293 459.276 459.276 0 0 1 11.284-57.038zm-13.545 77.72a553.6 553.6 0 0 1 41.71-5.727 676.702 676.702 0 0 0-1.455 42.31c-.043 16.402.524 32.815 1.674 49.19a574.786 574.786 0 0 1-41.87-5.508 460.614 460.614 0 0 1-.06-80.264zm13.544 157.354a459.392 459.392 0 0 1-11.207-56.44 594.05 594.05 0 0 0 41.322 5.104 679.112 679.112 0 0 0 10.954 71.14 142.72 142.72 0 0 1-41.07-19.804zM388.09 280.48l-18.376-3.773c-1.025-.21-2.052-.407-3.077-.612a479.642 479.642 0 0 0-6.512-39.994c11.86 12.85 21.408 27.863 27.964 44.38zm-53.738-66.433a459.53 459.53 0 0 1 11.663 58.313 571.94 571.94 0 0 0-41.04-5.162 681.083 681.083 0 0 0-10.77-71.786 142.706 142.706 0 0 1 40.147 18.635zm-95.292-60.575c0-5.92 4.817-10.738 10.738-10.738h10.176c5.92 0 10.738 4.817 10.738 10.738v17.222a164.27 164.27 0 0 0-15.826-.77c-5.34 0-10.617.266-15.826.77v-17.222zm-4.068 37.84a143.948 143.948 0 0 1 19.894-1.388c6.08 0 12.07.384 17.95 1.122a660.545 660.545 0 0 1 11.894 74.72 564.67 564.67 0 0 0-61.536.107 654.04 654.04 0 0 1 11.798-74.56zm37.227 283.92l-.03.135a144.09 144.09 0 0 1-17.302 1.048c-6.53 0-12.954-.45-19.254-1.3-5.464-24.475-9.49-49.308-12.103-74.31a587.95 587.95 0 0 0 31.358.848c9.84 0 19.68-.252 29.515-.746a660.062 660.062 0 0 1-12.182 74.324zm62.134-22.94a142.645 142.645 0 0 1-40.78 18.81 681.28 681.28 0 0 0 11.08-71.564 594.195 594.195 0 0 0 41.282-4.975 459.45 459.45 0 0 1-11.582 57.728zm13.874-78.356a575.065 575.065 0 0 1-41.842 5.364c.18-2.573.352-5.147.503-7.72.325-5.513-3.88-10.245-9.395-10.57a9.987 9.987 0 0 0-10.57 9.395 656.917 656.917 0 0 1-.702 10.37 567.535 567.535 0 0 1-64.48-.1 665.894 665.894 0 0 1-.233-94.67 544.99 544.99 0 0 1 64.944-.104c.276 3.936.524 7.87.728 11.806.276 5.34 4.692 9.483 9.978 9.483.175 0 .35-.006.526-.015 5.516-.286 9.755-4.99 9.47-10.504-.16-3.074-.35-6.15-.55-9.226a553.086 553.086 0 0 1 41.68 5.576c2.355 26.92 2.335 54-.058 80.916zm11.9 56.302a479.645 479.645 0 0 0 6.418-39.26c1.03-.198 2.063-.388 3.093-.59l18.056-3.563c-6.542 16.135-15.94 30.815-27.57 43.413zm34.17-65.1l-25.693 5.067a480.554 480.554 0 0 0 .058-73.297l25.557 5.248c.18.037.36.056.54.083a143.21 143.21 0 0 1 3.372 30.93c0 10.973-1.244 21.66-3.592 31.932-.08.013-.162.02-.243.035z"/><path d="M304.44 326.095c-1.86-1.86-4.44-2.93-7.07-2.93s-5.21 1.07-7.07 2.93a10.077 10.077 0 0 0-2.93 7.08c0 2.63 1.07 5.2 2.93 7.07 1.86 1.86 4.44 2.92 7.07 2.92s5.21-1.06 7.07-2.92a10.09 10.09 0 0 0 2.93-7.07 10.1 10.1 0 0 0-2.93-7.08zM89.77 444.978a43.927 43.927 0 0 1-31.392-31.8 10 10 0 0 0-19.402 0 43.93 43.93 0 0 1-31.4 31.802C3.117 446.162 0 450.212 0 454.827s3.116 8.665 7.577 9.848a43.928 43.928 0 0 1 31.4 31.803c1.114 4.45 5.113 7.572 9.7 7.572s8.587-3.122 9.7-7.572a43.93 43.93 0 0 1 31.4-31.804 10.195 10.195 0 0 0 7.577-9.86c-.005-4.62-3.13-8.667-7.585-9.836zm-41.093 25.424A63.98 63.98 0 0 0 33.1 454.827a63.998 63.998 0 0 0 15.577-15.575 63.998 63.998 0 0 0 15.578 15.574 64.006 64.006 0 0 0-15.578 15.576zM173.634 140.823c-.17-.36-.355-.712-.54-1.06-.086-.22-.17-.44-.27-.656L138.12 65.783a9.998 9.998 0 0 0-14.03-4.388L47.97 105.228a10 10 0 0 0-4.05 12.943l21.345 45.104c-4.958.365-9.986 1.69-14.744 3.94-7.938 3.758-14.627 9.768-18.834 16.924-4.93 8.385-5.735 17.463-2.212 24.907 3.523 7.444 11.055 12.576 20.664 14.08 2.014.317 4.068.473 6.14.473 6.368 0 12.9-1.472 18.89-4.306 7.985-3.78 14.45-9.792 18.203-16.93 4.19-7.964 4.597-16.743 1.122-24.086-.167-.354-.35-.7-.535-1.043-.087-.225-.173-.45-.277-.672l-27.735-58.605 58.735-33.82 19.704 41.635c-4.832.376-9.835 1.678-14.72 3.99-7.94 3.757-14.63 9.768-18.835 16.924-4.93 8.385-5.736 17.463-2.213 24.907 4.412 9.322 15.034 14.534 26.95 14.534 6.13 0 12.6-1.38 18.744-4.286 17.746-8.397 26.233-26.413 19.324-41.015zm-105.57 42.342c1.062 0 2.09.098 3.063.298 1.527.313 4.244 1.168 5.285 3.37 1.043 2.2-.018 4.843-.744 6.223-1.723 3.277-5.024 6.25-9.057 8.16-4.223 1.998-9.224 2.804-13.378 2.153-2.833-.445-5.063-1.574-5.68-2.88-.618-1.303-.078-3.743 1.375-6.216 2.13-3.625 5.924-6.982 10.148-8.98 2.95-1.398 6.095-2.13 8.99-2.13zm77.69-19.403c-8.44 3.996-17.573 2.42-19.06-.724-.617-1.304-.077-3.745 1.376-6.217 2.13-3.624 5.924-6.98 10.148-8.98 3.13-1.48 6.26-2.127 9.003-2.127 4.065 0 7.273 1.423 8.334 3.667 1.78 3.757-2.033 10.706-9.8 14.382zM449.225 125.86a43.93 43.93 0 0 1-31.393-31.8 9.998 9.998 0 0 0-19.4 0 43.92 43.92 0 0 1-31.382 31.8 10.194 10.194 0 0 0-7.595 9.85c0 4.622 3.12 8.67 7.585 9.85a43.923 43.923 0 0 1 31.39 31.802 10 10 0 0 0 19.402 0 43.927 43.927 0 0 1 31.383-31.8 10.194 10.194 0 0 0 7.594-9.84 10.2 10.2 0 0 0-7.585-9.86zm-41.093 25.425a63.972 63.972 0 0 0-15.576-15.574 63.976 63.976 0 0 0 15.576-15.574 63.976 63.976 0 0 0 15.576 15.575 64.025 64.025 0 0 0-15.576 15.575zM502.417 396.236c-19.026-.794-43.783-11.338-44.026-11.443a10 10 0 0 0-13.87 7.89l-7.573 57.935c-4.46-2.472-9.635-4.204-15.295-4.944-8.924-1.168-18.02.3-25.608 4.13-8.863 4.475-14.57 11.812-15.658 20.13-1.088 8.32 2.542 16.878 9.958 23.48 6.35 5.652 14.763 9.408 23.686 10.574 1.997.26 3.966.388 5.896.388 17.323 0 31.497-10.192 33.42-24.902.022-.162.03-.32.05-.48.015-.103.04-.202.053-.305l9.265-70.887c10.263 3.524 25.353 7.853 38.87 8.417 5.53.217 10.177-4.057 10.407-9.574.23-5.52-4.057-10.18-9.575-10.41zm-68.903 80.644c-.576 4.402-7.923 8.45-16.893 7.277-4.84-.633-9.693-2.757-12.98-5.682-2.32-2.067-3.633-4.346-3.423-5.948.21-1.602 2.063-3.466 4.838-4.867 3.046-1.537 6.877-2.366 10.702-2.366 1.107 0 2.215.07 3.303.21 8.97 1.174 15.03 6.973 14.454 11.376z"/></svg>