<svg viewBox="0 -1 511.99871 511" xmlns="http://www.w3.org/2000/svg"><path d="M380.59 204.04l30.082-1.907.16-.012c21.438-1.808 40.68-13.038 52.797-30.82l23.78-34.89c20.7-30.375 28.72-67.062 22.574-103.3a31.88 31.88 0 0 0-10.246-18.462 31.872 31.872 0 0 0-19.558-7.96c-36.727-1.758-72.176 10.605-99.848 34.796l-31.79 27.793c-16.198 14.16-25.042 34.61-24.27 56.114.005.05.005.106.01.16l1.714 30.09c.668 11.73-3.633 23.305-11.777 31.735L65.866 442.508c-6.648 6.933-10.082 16.445-9.664 26.785.46 11.383 5.684 22.562 13.973 29.91 7.488 6.637 17.78 10.418 28.07 10.418 1.102 0 2.203-.042 3.3-.132 10.317-.824 19.352-5.37 25.47-12.847L350.48 219.556c7.41-9.118 18.387-14.774 30.11-15.516zm-42.04 5.858L115.106 486.96c-3.414 4.173-8.664 6.743-14.78 7.23-7.278.583-14.74-1.838-19.966-6.47-5.227-4.638-8.524-11.755-8.817-19.048-.25-6.13 1.668-11.65 5.363-15.5L325.238 198.06c11.133-11.52 16.992-27.298 16.086-43.29l-1.715-30.012c-.583-16.832 6.35-32.836 19.035-43.926l31.79-27.793c24.67-21.567 56.288-32.58 89.014-31.024 3.726.18 7.312 1.64 10.105 4.117a16.47 16.47 0 0 1 5.297 9.54c5.476 32.307-1.672 65.01-20.125 92.09l-23.782 34.893c-9.488 13.922-24.547 22.723-41.328 24.164l-30 1.9c-15.984 1.014-30.945 8.725-41.066 21.178zm0 0"/><path d="M497.82 440.57L331.3 288.902a7.677 7.677 0 0 0-10.843.504 7.68 7.68 0 0 0 .508 10.844L487.44 451.883c3.962 3.66 6.208 9.054 6.33 15.187.144 7.297-2.72 14.598-7.66 19.54-4.938 4.937-12.227 7.808-19.54 7.66-6.132-.122-11.527-2.368-15.148-6.286L303.04 325.078a7.677 7.677 0 0 0-10.845-.508 7.677 7.677 0 0 0-.504 10.844L440.11 498.36c6.523 7.054 15.812 11.054 26.16 11.257.27.004.535.008.804.008 11.12 0 22.242-4.512 29.887-12.16 7.837-7.836 12.38-19.31 12.153-30.695-.203-10.348-4.2-19.637-11.293-26.2zm0 0M92.61 202.586a71.07 71.07 0 0 0 46.632 18.793l30.14.093c11.75.035 23.044 5.023 30.97 13.66l13.277 14.574a7.65 7.65 0 0 0 5.675 2.508 7.64 7.64 0 0 0 5.164-2 7.673 7.673 0 0 0 .507-10.844l-13.297-14.593c-10.828-11.804-26.227-18.6-42.246-18.656l-30.06-.093a55.766 55.766 0 0 1-36.02-14.41L16.01 87.78a2.64 2.64 0 0 1 .156-3.58c.672-.677 1.46-.774 1.87-.774s1.2.097 1.876.773l79.508 79.51c7.86 7.86 20.648 7.86 28.508-.003l9.344-9.34v-.004l16.59-16.59s.003 0 .003-.003l.004-.004 9.34-9.34c7.86-7.86 7.86-20.65 0-28.508L83.7 20.41a2.655 2.655 0 0 1 0-3.746 2.64 2.64 0 0 1 3.58-.156l103.837 87.35a55.74 55.74 0 0 1 14.414 36.017l.09 30.063c.056 16.015 6.857 31.414 18.677 42.265l14.226 12.957a7.676 7.676 0 0 0 10.844-.504 7.68 7.68 0 0 0-.508-10.844l-14.204-12.937c-8.66-7.945-13.644-19.242-13.683-30.988l-.094-30.14c0-.056 0-.11-.005-.165a71.07 71.07 0 0 0-18.79-46.473 7.67 7.67 0 0 0-.702-.676L97.16 4.762C89.957-1.3 79.504-.848 72.848 5.81c-7.02 7.018-7.02 18.436 0 25.452l79.507 79.51a4.814 4.814 0 0 1 0 6.802l-3.917 3.914-88.614-88.61c-2.996-3-7.855-3-10.85 0a7.674 7.674 0 0 0 0 10.852l88.612 88.614-5.742 5.738-88.614-88.61a7.674 7.674 0 0 0-10.85 0c-3 2.997-3 7.856 0 10.852l88.608 88.614-3.914 3.917a4.814 4.814 0 0 1-6.8 0L30.76 73.348c-3.4-3.4-7.918-5.274-12.727-5.274S8.707 69.95 5.31 73.348c-6.658 6.656-7.107 17.11-1.048 24.316l87.675 104.22c.208.25.434.483.672.702zm0 0"/></svg>