<svg xmlns="http://www.w3.org/2000/svg" viewBox="0 0 512 512"><path d="M506.657 297.43c-9.734-39.958-33.406-75.24-66.654-99.347-31.65-22.947-70.186-34.566-108.96-32.96-17.873-38.356-48.992-68.664-88.15-85.678a7.588 7.588 0 0 0-6.047 13.917c37.247 16.183 66.528 45.53 82.45 82.63 3.485 8.122 6.31 16.582 8.396 25.147a159.088 159.088 0 0 1 1.562 7.15v.006c7.597 38.77.45 78.75-20.124 112.577-19.45 31.978-49.302 55.83-84.543 67.71a123.414 123.414 0 0 1-4.88-13.056c-.072-.234-.145-.468-.216-.703-.42-1.377-.82-2.762-1.195-4.155l-.027-.106c66.282-22.246 106.367-91.26 91.887-160.414v-.003a139.084 139.084 0 0 0-1.01-4.493 139.993 139.993 0 0 0-10.94-29.77l-.032-.058a6.62 6.62 0 0 0-.1-.186c-13.926-27.522-37.04-49.93-65.122-63.108-13.46-6.318-27.83-10.383-42.474-12.136l53.893-50.094a7.588 7.588 0 0 0 1.133-9.786l-.036-.053s0-.002-.002-.003L220.55 3.357A7.588 7.588 0 0 0 214.254 0h-80.75a7.59 7.59 0 0 0-6.3 3.357l-24.952 37.16a7.587 7.587 0 0 0 1.135 9.787l53.888 50.09a138.502 138.502 0 0 0-16.35 2.947C66.338 121.513 20.44 196.978 38.61 271.565c7.49 30.75 25.422 58.268 50.49 77.487 23.03 17.658 51.227 27.746 80.023 28.733l.42 1.772c.34 1.388.697 2.766 1.067 4.138.086.318.178.636.265.954.302 1.097.613 2.19.935 3.275l.27.897a177.19 177.19 0 0 0 2.673 8.123c-33.37.17-66.242-10.284-93.57-29.997-30.498-22.002-52.205-54.272-61.12-90.865-8.897-36.524-4.498-75.1 12.39-108.624 16.7-33.153 44.553-59.474 78.427-74.114a7.587 7.587 0 0 0-6.02-13.928C67.727 95.464 37.2 124.306 18.9 160.63.392 197.37-4.43 239.648 5.32 279.673c9.77 40.1 33.56 75.464 66.985 99.578 29.667 21.403 65.306 32.87 101.534 32.87 2.357 0 4.718-.064 7.08-.16C209.4 472.937 271.184 512 338.103 512c13.553 0 27.32-1.603 41.06-4.95 92.942-22.642 150.136-116.677 127.494-209.62zm-184.563 31.328c20.906-34.372 29.15-74.547 23.602-114.09 24.688 1.53 48.747 10.542 68.456 25.814 22.38 17.34 37.757 41.08 44.474 68.65 16.19 66.458-24.706 133.697-91.165 149.887-32.192 7.843-65.513 2.68-93.824-14.54-17.523-10.658-31.823-25.147-42.04-42.274 37.684-13.255 69.584-39.06 90.498-73.448zm-106.872 26.804c-3.876-27.61 1.62-55.566 15.91-79.892 14.952-25.453 38.044-44.434 65.608-54.135 8.127 58.14-26.154 114.502-81.518 134.027zm-77.676-340.39h72.662l14.727 21.933H122.82l14.726-21.932zm-9.752 37.106h92.166l-46.083 42.835-46.083-42.835zm38.473 310.165c-24.463-1.505-48.31-10.385-67.936-25.433-22.654-17.37-38.207-41.242-44.978-69.038-16.19-66.458 24.706-133.698 91.165-149.89 27.796-6.77 56.148-3.94 81.99 8.188 22.39 10.507 41.22 27.6 53.824 48.632-38.93 13.69-71.492 40.627-92.36 76.648-19.592 33.822-27.086 72.624-21.703 110.893zM375.57 492.308a158.026 158.026 0 0 1-37.466 4.517c-62.996-.005-121.013-37.948-145.81-96.643-.27-.643-.542-1.285-.805-1.93-.107-.262-.21-.525-.314-.786-.323-.806-.643-1.614-.952-2.426-.046-.12-.09-.243-.136-.365a155.39 155.39 0 0 1-1.038-2.815 155.85 155.85 0 0 1-1.09-3.154l-.006-.017c-.347-1.04-.683-2.082-1.008-3.127-.023-.074-.044-.15-.067-.223-.302-.974-.596-1.95-.878-2.927-.092-.32-.178-.643-.27-.965-.208-.74-.417-1.48-.615-2.223a157.17 157.17 0 0 1-.832-3.262c-.27-1.107-.523-2.216-.768-3.326-.095-.432-.188-.874-.28-1.315-.108-.505-.21-1.01-.313-1.515-.067-.332-.134-.66-.2-.998-.01-.047-.024-.09-.033-.135-7.33-37.585-.89-76.2 18.41-109.52 19.4-33.49 49.876-58.373 86.284-70.634a125.01 125.01 0 0 1 6.32 18.01c-31.83 10.664-58.51 32.27-75.652 61.452-17.646 30.037-23.34 65.006-16.228 98.962v.007c.004.018.008.032.01.05.127.6.255 1.2.39 1.8a123.46 123.46 0 0 0 1.56 6.317c.08.298.17.595.252.893.264.946.535 1.89.817 2.826.085.283.174.564.262.846a147.145 147.145 0 0 0 1.143 3.543c.38 1.13.777 2.255 1.186 3.372l.044.12c10.804 29.436 31.08 54.19 58.267 70.725 22.086 13.433 46.886 20.33 72.093 20.328 11.055 0 22.192-1.327 33.208-4.01 74.587-18.17 120.485-93.636 102.315-168.223-7.537-30.94-24.8-57.585-49.922-77.05-23.113-17.91-51.562-28.17-80.59-29.165a174.55 174.55 0 0 0-5.635-19.172c33.493-.2 66.498 10.367 93.874 30.216 30.337 21.995 51.935 54.19 60.82 90.653 20.66 84.815-31.532 170.626-116.346 191.288z"/></svg>